<mxfile host="Electron" modified="2024-07-02T12:57:15.606Z" agent="Mozilla/5.0 (Macintosh; Intel Mac OS X 10_15_7) AppleWebKit/537.36 (KHTML, like Gecko) draw.io/21.2.8 Chrome/112.0.5615.165 Electron/24.2.0 Safari/537.36" etag="T1f8bYH_0Jd_NKQUq7xY" version="21.2.8" type="device">
  <diagram name="Page-1" id="4fDpvOj6Ap3gWiHqsom4">
    <mxGraphModel dx="1054" dy="1451" grid="1" gridSize="10" guides="1" tooltips="1" connect="1" arrows="1" fold="1" page="1" pageScale="1" pageWidth="1169" pageHeight="827" math="0" shadow="0">
      <root>
        <mxCell id="0" />
        <mxCell id="1" parent="0" />
        <mxCell id="RpcsYTAZJ5RCRDvCK5kl-1" value="" style="rounded=0;whiteSpace=wrap;html=1;fillColor=none;dashed=1;dashPattern=1 4;" parent="1" vertex="1">
          <mxGeometry x="160" y="290" width="109" height="110" as="geometry" />
        </mxCell>
        <mxCell id="s2ZCeWvbByKgTgvabVwQ-14" value="" style="rounded=0;whiteSpace=wrap;html=1;fillColor=none;dashed=1;dashPattern=1 4;" parent="1" vertex="1">
          <mxGeometry x="290" y="20" width="470" height="240" as="geometry" />
        </mxCell>
        <mxCell id="s2ZCeWvbByKgTgvabVwQ-16" value="" style="rounded=0;whiteSpace=wrap;html=1;fillColor=none;dashed=1;dashPattern=1 4;" parent="1" vertex="1">
          <mxGeometry x="290" y="350" width="470" height="220" as="geometry" />
        </mxCell>
        <mxCell id="s2ZCeWvbByKgTgvabVwQ-6" value="" style="ellipse;whiteSpace=wrap;html=1;" parent="1" vertex="1">
          <mxGeometry x="490" y="170" width="80" height="80" as="geometry" />
        </mxCell>
        <mxCell id="s2ZCeWvbByKgTgvabVwQ-4" value="" style="ellipse;whiteSpace=wrap;html=1;" parent="1" vertex="1">
          <mxGeometry x="660" y="470" width="80" height="80" as="geometry" />
        </mxCell>
        <mxCell id="s2ZCeWvbByKgTgvabVwQ-3" value="" style="ellipse;whiteSpace=wrap;html=1;" parent="1" vertex="1">
          <mxGeometry x="650" y="460" width="80" height="80" as="geometry" />
        </mxCell>
        <mxCell id="RLvPA5mO0UZJfV3lfqa0-3" value="" style="ellipse;whiteSpace=wrap;html=1;" parent="1" vertex="1">
          <mxGeometry x="640" y="450" width="80" height="80" as="geometry" />
        </mxCell>
        <mxCell id="RLvPA5mO0UZJfV3lfqa0-14" style="edgeStyle=orthogonalEdgeStyle;rounded=0;orthogonalLoop=1;jettySize=auto;html=1;exitX=0;exitY=0;exitDx=0;exitDy=0;entryX=1;entryY=0.5;entryDx=0;entryDy=0;curved=1;" parent="1" source="RLvPA5mO0UZJfV3lfqa0-1" target="RLvPA5mO0UZJfV3lfqa0-12" edge="1">
          <mxGeometry relative="1" as="geometry">
            <mxPoint x="390" y="440" as="sourcePoint" />
          </mxGeometry>
        </mxCell>
        <mxCell id="RLvPA5mO0UZJfV3lfqa0-10" style="edgeStyle=orthogonalEdgeStyle;rounded=0;orthogonalLoop=1;jettySize=auto;html=1;entryX=0.5;entryY=1;entryDx=0;entryDy=0;startArrow=classic;startFill=1;exitX=0.5;exitY=0;exitDx=0;exitDy=0;curved=1;" parent="1" source="RLvPA5mO0UZJfV3lfqa0-1" target="RLvPA5mO0UZJfV3lfqa0-9" edge="1">
          <mxGeometry relative="1" as="geometry">
            <mxPoint x="760" y="440" as="sourcePoint" />
          </mxGeometry>
        </mxCell>
        <mxCell id="s2ZCeWvbByKgTgvabVwQ-7" style="edgeStyle=orthogonalEdgeStyle;rounded=0;orthogonalLoop=1;jettySize=auto;html=1;exitX=0;exitY=0.5;exitDx=0;exitDy=0;entryX=1;entryY=0.5;entryDx=0;entryDy=0;startArrow=classic;startFill=1;" parent="1" source="RLvPA5mO0UZJfV3lfqa0-9" target="s2ZCeWvbByKgTgvabVwQ-5" edge="1">
          <mxGeometry relative="1" as="geometry" />
        </mxCell>
        <mxCell id="RLvPA5mO0UZJfV3lfqa0-9" value="Audio&lt;br&gt;(I2S)" style="ellipse;whiteSpace=wrap;html=1;" parent="1" vertex="1">
          <mxGeometry x="670" y="160" width="80" height="80" as="geometry" />
        </mxCell>
        <mxCell id="RLvPA5mO0UZJfV3lfqa0-13" style="edgeStyle=orthogonalEdgeStyle;rounded=0;orthogonalLoop=1;jettySize=auto;html=1;exitX=0.5;exitY=1;exitDx=0;exitDy=0;entryX=0;entryY=0.5;entryDx=0;entryDy=0;curved=1;" parent="1" source="RLvPA5mO0UZJfV3lfqa0-12" target="RLvPA5mO0UZJfV3lfqa0-1" edge="1">
          <mxGeometry relative="1" as="geometry">
            <mxPoint x="350" y="480" as="targetPoint" />
          </mxGeometry>
        </mxCell>
        <mxCell id="s2ZCeWvbByKgTgvabVwQ-13" style="edgeStyle=orthogonalEdgeStyle;rounded=0;orthogonalLoop=1;jettySize=auto;html=1;exitX=0.5;exitY=0;exitDx=0;exitDy=0;startArrow=classic;startFill=1;" parent="1" source="RLvPA5mO0UZJfV3lfqa0-12" target="s2ZCeWvbByKgTgvabVwQ-8" edge="1">
          <mxGeometry relative="1" as="geometry" />
        </mxCell>
        <mxCell id="RLvPA5mO0UZJfV3lfqa0-12" value="awe_usb_hid" style="ellipse;whiteSpace=wrap;html=1;" parent="1" vertex="1">
          <mxGeometry x="320" y="370" width="80" height="80" as="geometry" />
        </mxCell>
        <mxCell id="RLvPA5mO0UZJfV3lfqa0-15" value="c_tuning_from_host" style="text;html=1;align=center;verticalAlign=middle;resizable=0;points=[];autosize=1;strokeColor=none;fillColor=none;" parent="1" vertex="1">
          <mxGeometry x="332" y="475" width="130" height="30" as="geometry" />
        </mxCell>
        <mxCell id="RLvPA5mO0UZJfV3lfqa0-18" value="c_tuning_to_host" style="text;html=1;align=center;verticalAlign=middle;resizable=0;points=[];autosize=1;strokeColor=none;fillColor=none;" parent="1" vertex="1">
          <mxGeometry x="430" y="430" width="110" height="30" as="geometry" />
        </mxCell>
        <mxCell id="RLvPA5mO0UZJfV3lfqa0-2" value="" style="ellipse;whiteSpace=wrap;html=1;" parent="1" vertex="1">
          <mxGeometry x="630" y="440" width="80" height="80" as="geometry" />
        </mxCell>
        <mxCell id="lSHOnUaZ83EpAKCMlcqz-3" style="edgeStyle=orthogonalEdgeStyle;rounded=0;orthogonalLoop=1;jettySize=auto;html=1;exitX=0;exitY=1;exitDx=0;exitDy=0;entryX=1;entryY=0.5;entryDx=0;entryDy=0;curved=1;startArrow=classic;startFill=1;" edge="1" parent="1" source="RLvPA5mO0UZJfV3lfqa0-1" target="lSHOnUaZ83EpAKCMlcqz-1">
          <mxGeometry relative="1" as="geometry" />
        </mxCell>
        <mxCell id="RLvPA5mO0UZJfV3lfqa0-1" value="awe_xcore&lt;br&gt;_main&lt;br&gt;0..4" style="ellipse;whiteSpace=wrap;html=1;" parent="1" vertex="1">
          <mxGeometry x="620" y="430" width="80" height="80" as="geometry" />
        </mxCell>
        <mxCell id="s2ZCeWvbByKgTgvabVwQ-5" value="Decouple&lt;br&gt;and&lt;br&gt;Buffer" style="ellipse;whiteSpace=wrap;html=1;" parent="1" vertex="1">
          <mxGeometry x="480" y="160" width="80" height="80" as="geometry" />
        </mxCell>
        <mxCell id="s2ZCeWvbByKgTgvabVwQ-9" style="edgeStyle=orthogonalEdgeStyle;rounded=0;orthogonalLoop=1;jettySize=auto;html=1;exitX=1;exitY=0.5;exitDx=0;exitDy=0;entryX=0;entryY=0.5;entryDx=0;entryDy=0;startArrow=classic;startFill=1;" parent="1" source="s2ZCeWvbByKgTgvabVwQ-8" target="s2ZCeWvbByKgTgvabVwQ-5" edge="1">
          <mxGeometry relative="1" as="geometry" />
        </mxCell>
        <mxCell id="s2ZCeWvbByKgTgvabVwQ-11" style="edgeStyle=orthogonalEdgeStyle;rounded=0;orthogonalLoop=1;jettySize=auto;html=1;exitX=0.5;exitY=0;exitDx=0;exitDy=0;entryX=0.5;entryY=1;entryDx=0;entryDy=0;startArrow=classic;startFill=1;" parent="1" source="s2ZCeWvbByKgTgvabVwQ-8" target="s2ZCeWvbByKgTgvabVwQ-10" edge="1">
          <mxGeometry relative="1" as="geometry" />
        </mxCell>
        <mxCell id="s2ZCeWvbByKgTgvabVwQ-8" value="XUD" style="ellipse;whiteSpace=wrap;html=1;" parent="1" vertex="1">
          <mxGeometry x="320" y="160" width="80" height="80" as="geometry" />
        </mxCell>
        <mxCell id="s2ZCeWvbByKgTgvabVwQ-12" style="edgeStyle=orthogonalEdgeStyle;orthogonalLoop=1;jettySize=auto;html=1;exitX=1;exitY=0.5;exitDx=0;exitDy=0;entryX=0.5;entryY=0;entryDx=0;entryDy=0;startArrow=classic;startFill=1;curved=1;" parent="1" source="s2ZCeWvbByKgTgvabVwQ-10" target="s2ZCeWvbByKgTgvabVwQ-5" edge="1">
          <mxGeometry relative="1" as="geometry" />
        </mxCell>
        <mxCell id="s2ZCeWvbByKgTgvabVwQ-10" value="Endpoint 0" style="ellipse;whiteSpace=wrap;html=1;" parent="1" vertex="1">
          <mxGeometry x="320" y="30" width="80" height="80" as="geometry" />
        </mxCell>
        <mxCell id="s2ZCeWvbByKgTgvabVwQ-17" value="lib_xua" style="text;html=1;align=center;verticalAlign=middle;resizable=0;points=[];autosize=1;strokeColor=none;fillColor=none;fontSize=15;" parent="1" vertex="1">
          <mxGeometry x="500" y="20" width="70" height="30" as="geometry" />
        </mxCell>
        <mxCell id="s2ZCeWvbByKgTgvabVwQ-18" value="lib_awe" style="text;html=1;align=center;verticalAlign=middle;resizable=0;points=[];autosize=1;strokeColor=none;fillColor=none;fontSize=15;" parent="1" vertex="1">
          <mxGeometry x="510" y="360" width="70" height="30" as="geometry" />
        </mxCell>
        <mxCell id="s2ZCeWvbByKgTgvabVwQ-19" value="c_xud_in /&lt;br&gt;c_xud_out" style="text;whiteSpace=wrap;html=1;align=center;" parent="1" vertex="1">
          <mxGeometry x="357" y="260" width="80" height="40" as="geometry" />
        </mxCell>
        <mxCell id="s2ZCeWvbByKgTgvabVwQ-20" value="c_xud_in /&lt;br&gt;c_xud_out" style="text;whiteSpace=wrap;html=1;align=center;" parent="1" vertex="1">
          <mxGeometry x="400" y="160" width="80" height="40" as="geometry" />
        </mxCell>
        <mxCell id="s2ZCeWvbByKgTgvabVwQ-21" value="c_xud_in /&lt;br&gt;c_xud_out" style="text;whiteSpace=wrap;html=1;align=center;" parent="1" vertex="1">
          <mxGeometry x="287" y="119" width="80" height="40" as="geometry" />
        </mxCell>
        <mxCell id="s2ZCeWvbByKgTgvabVwQ-22" value="c_aud_ctl" style="text;whiteSpace=wrap;html=1;" parent="1" vertex="1">
          <mxGeometry x="430" y="90" width="80" height="40" as="geometry" />
        </mxCell>
        <mxCell id="s2ZCeWvbByKgTgvabVwQ-23" value="c_mix_out" style="text;whiteSpace=wrap;html=1;" parent="1" vertex="1">
          <mxGeometry x="610" y="170" width="90" height="40" as="geometry" />
        </mxCell>
        <mxCell id="4yzOFkqgn54AJH_TFF2w-1" value="" style="endArrow=none;dashed=1;html=1;dashPattern=1 3;strokeWidth=2;rounded=0;" parent="1" edge="1">
          <mxGeometry width="50" height="50" relative="1" as="geometry">
            <mxPoint x="600" y="650" as="sourcePoint" />
            <mxPoint x="600" y="-20" as="targetPoint" />
          </mxGeometry>
        </mxCell>
        <mxCell id="lSHOnUaZ83EpAKCMlcqz-5" style="edgeStyle=orthogonalEdgeStyle;rounded=0;orthogonalLoop=1;jettySize=auto;html=1;exitX=1;exitY=0.5;exitDx=0;exitDy=0;entryX=0;entryY=1;entryDx=0;entryDy=0;curved=1;startArrow=classic;startFill=1;" edge="1" parent="1" source="4yzOFkqgn54AJH_TFF2w-2" target="RLvPA5mO0UZJfV3lfqa0-9">
          <mxGeometry relative="1" as="geometry" />
        </mxCell>
        <mxCell id="4yzOFkqgn54AJH_TFF2w-2" value="i2c remote master" style="ellipse;whiteSpace=wrap;html=1;" parent="1" vertex="1">
          <mxGeometry x="169" y="300" width="80" height="80" as="geometry" />
        </mxCell>
        <mxCell id="RpcsYTAZJ5RCRDvCK5kl-2" value="application" style="text;html=1;align=center;verticalAlign=middle;resizable=0;points=[];autosize=1;strokeColor=none;fillColor=none;fontSize=15;" parent="1" vertex="1">
          <mxGeometry x="160" y="374" width="100" height="30" as="geometry" />
        </mxCell>
        <mxCell id="VLrgRJtexA4OPYJM_G0f-1" value="Tile[1]" style="text;html=1;align=center;verticalAlign=middle;resizable=0;points=[];autosize=1;strokeColor=none;fillColor=none;" parent="1" vertex="1">
          <mxGeometry x="640" y="-20" width="60" height="30" as="geometry" />
        </mxCell>
        <mxCell id="VLrgRJtexA4OPYJM_G0f-2" value="Tile[0]" style="text;html=1;align=center;verticalAlign=middle;resizable=0;points=[];autosize=1;strokeColor=none;fillColor=none;" parent="1" vertex="1">
          <mxGeometry x="410" y="-20" width="60" height="30" as="geometry" />
        </mxCell>
        <mxCell id="lSHOnUaZ83EpAKCMlcqz-1" value="Flash File System&lt;br&gt;server" style="ellipse;whiteSpace=wrap;html=1;" vertex="1" parent="1">
          <mxGeometry x="470" y="480" width="80" height="80" as="geometry" />
        </mxCell>
      </root>
    </mxGraphModel>
  </diagram>
</mxfile>
